<svg width="24" height="24" viewBox="0 0 24 24" fill="none" xmlns="http://www.w3.org/2000/svg">
<g clip-path="url(#paint0_angular_1606_976_clip_path)" data-figma-skip-parse="true"><g transform="matrix(0.012 0 0 0.012 12 12)"><foreignObject x="-1083.33" y="-1083.33" width="2166.67" height="2166.67"><div xmlns="http://www.w3.org/1999/xhtml" style="background:conic-gradient(from 90deg,rgba(5, 102, 67, 0.1) 0deg,rgba(5, 102, 67, 0.2) 0.036deg,rgba(10, 80, 50, 1) 360deg);height:100%;width:100%;opacity:1"></div></foreignObject></g></g><path fill-rule="evenodd" clip-rule="evenodd" d="M12 24C18.6274 24 24 18.6274 24 12C24 5.37258 18.6274 0 12 0C5.37258 0 0 5.37258 0 12C0 18.6274 5.37258 24 12 24ZM12 22C17.5228 22 22 17.5228 22 12C22 6.47715 17.5228 2 12 2C6.47715 2 2 6.47715 2 12C2 17.5228 6.47715 22 12 22Z" data-figma-gradient-fill="{&#34;type&#34;:&#34;GRADIENT_ANGULAR&#34;,&#34;stops&#34;:[{&#34;color&#34;:{&#34;r&#34;:0.019607843831181526,&#34;g&#34;:0.40000000596046448,&#34;b&#34;:0.26274511218070984,&#34;a&#34;:0.10000000149011612},&#34;position&#34;:0.0},{&#34;color&#34;:{&#34;r&#34;:0.019607843831181526,&#34;g&#34;:0.40000000596046448,&#34;b&#34;:0.26274511218070984,&#34;a&#34;:0.20000000298023224},&#34;position&#34;:9.9999997473787516e-05},{&#34;color&#34;:{&#34;r&#34;:0.039215687662363052,&#34;g&#34;:0.31372550129890442,&#34;b&#34;:0.19607843458652496,&#34;a&#34;:1.0},&#34;position&#34;:1.0}],&#34;stopsVar&#34;:[{&#34;color&#34;:{&#34;r&#34;:0.019607843831181526,&#34;g&#34;:0.40000000596046448,&#34;b&#34;:0.26274511218070984,&#34;a&#34;:0.10000000149011612},&#34;position&#34;:0.0},{&#34;color&#34;:{&#34;r&#34;:0.019607843831181526,&#34;g&#34;:0.40000000596046448,&#34;b&#34;:0.26274511218070984,&#34;a&#34;:0.20000000298023224},&#34;position&#34;:9.9999997473787516e-05},{&#34;color&#34;:{&#34;r&#34;:0.039215687662363052,&#34;g&#34;:0.31372550129890442,&#34;b&#34;:0.19607843458652496,&#34;a&#34;:1.0},&#34;position&#34;:1.0}],&#34;transform&#34;:{&#34;m00&#34;:24.0,&#34;m01&#34;:2.2785857131234905e-14,&#34;m02&#34;:-2.1316282072803006e-14,&#34;m10&#34;:-1.2127716941866349e-14,&#34;m11&#34;:24.0,&#34;m12&#34;:-5.3290705182007514e-15},&#34;opacity&#34;:1.0,&#34;blendMode&#34;:&#34;NORMAL&#34;,&#34;visible&#34;:true}"/>
<path fill-rule="evenodd" clip-rule="evenodd" d="M22.7818 9.6007C23.3296 9.53003 23.8309 9.91677 23.9016 10.4645C23.9673 10.9737 24.0002 11.4866 24.0002 12C24.0002 12.5523 23.5525 13 23.0002 13C22.4479 13 22.0002 12.5523 22.0002 12C22.0002 11.5722 21.9727 11.1448 21.918 10.7204C21.8473 10.1727 22.2341 9.67137 22.7818 9.6007Z" fill="#0A5032"/>
<defs>
<clipPath id="paint0_angular_1606_976_clip_path"><path fill-rule="evenodd" clip-rule="evenodd" d="M12 24C18.6274 24 24 18.6274 24 12C24 5.37258 18.6274 0 12 0C5.37258 0 0 5.37258 0 12C0 18.6274 5.37258 24 12 24ZM12 22C17.5228 22 22 17.5228 22 12C22 6.47715 17.5228 2 12 2C6.47715 2 2 6.47715 2 12C2 17.5228 6.47715 22 12 22Z"/></clipPath></defs>
</svg>
